<?xml version="1.0" encoding="UTF-8"?> <svg xmlns="http://www.w3.org/2000/svg" width="49" height="48" viewBox="0 0 49 48" fill="none"><path d="M0.5 24C0.5 10.7452 11.2452 0 24.5 0C37.7548 0 48.5 10.7452 48.5 24C48.5 37.2548 37.7548 48 24.5 48C11.2452 48 0.5 37.2548 0.5 24Z" fill="#FBEFFF"></path><g clip-path="url(#clip0_407_2372)"><path fill-rule="evenodd" clip-rule="evenodd" d="M16.6875 18.375C16.5149 18.375 16.375 18.5149 16.375 18.6875V29.3125C16.375 29.4851 16.5149 29.625 16.6875 29.625H32.3125C32.4851 29.625 32.625 29.4851 32.625 29.3125V18.6875C32.625 18.5149 32.4851 18.375 32.3125 18.375H16.6875ZM14.5 18.6875C14.5 17.4794 15.4794 16.5 16.6875 16.5H32.3125C33.5206 16.5 34.5 17.4794 34.5 18.6875V29.3125C34.5 30.5206 33.5206 31.5 32.3125 31.5H16.6875C15.4794 31.5 14.5 30.5206 14.5 29.3125V18.6875Z" fill="#8250DF"></path><path d="M22 27.1981V20.8019C22 20.559 22.265 20.409 22.4733 20.534L27.8034 23.732C28.0057 23.8534 28.0057 24.1466 27.8034 24.268L22.4733 27.466C22.265 27.591 22 27.441 22 27.1981Z" fill="#8250DF"></path></g><defs><clipPath id="clip0_407_2372"><rect width="20" height="20" fill="white" transform="translate(14.5 14)"></rect></clipPath></defs></svg> 